<?xml version="1.0" standalone="no"?>
<!DOCTYPE svg PUBLIC "-//W3C//DTD SVG 20010904//EN"
 "http://www.w3.org/TR/2001/REC-SVG-20010904/DTD/svg10.dtd">
<svg version="1.0" xmlns="http://www.w3.org/2000/svg"
 width="250.000000pt" height="187.000000pt" viewBox="0 0 250.000000 187.000000"
 preserveAspectRatio="xMidYMid meet">
<metadata>
Created by potrace 1.15, written by Peter Selinger 2001-2017
</metadata>
<g transform="translate(0.000000,187.000000) scale(0.100000,-0.100000)"
fill="#000000" stroke="none">
<path d="M622 1843 c346 -2 910 -2 1255 0 346 1 63 2 -627 2 -690 0 -973 -1
-628 -2z"/>
<path d="M622 1813 c346 -2 910 -2 1255 0 346 1 63 2 -627 2 -690 0 -973 -1
-628 -2z"/>
<path d="M0 1790 c0 -6 79 -11 213 -12 l212 -2 -215 -6 -215 -6 203 -2 c126
-1 202 -6 202 -12 0 -6 -76 -11 -202 -12 l-203 -2 200 -6 200 -5 -200 -5 -200
-5 198 -3 c120 -1 197 -6 197 -12 0 -6 -77 -11 -197 -13 l-198 -2 198 -3 c123
-1 197 -6 197 -12 0 -6 -74 -11 -197 -12 l-198 -2 200 -6 200 -5 -200 -5 -200
-5 198 -3 c123 -1 197 -6 197 -12 0 -6 -74 -11 -197 -12 l-198 -2 200 -6 200
-5 -200 -5 -200 -5 198 -3 c263 -3 263 -21 0 -25 l-198 -2 198 -3 c189 -2 197
-3 197 -22 0 -19 -8 -20 -197 -23 l-198 -2 198 -3 c120 -1 197 -6 197 -12 0
-6 -77 -11 -197 -13 l-198 -2 198 -3 c123 -1 197 -6 197 -12 0 -6 -74 -11
-197 -12 l-198 -2 200 -6 200 -5 -200 -5 -200 -5 198 -3 c123 -1 197 -6 197
-12 0 -6 -74 -11 -197 -12 l-198 -2 200 -6 200 -5 -200 -5 -200 -5 198 -3
c120 -1 197 -6 197 -12 0 -6 -77 -11 -197 -13 l-198 -2 198 -3 c189 -2 197 -3
197 -22 0 -19 -8 -20 -197 -23 l-198 -2 198 -3 c189 -2 197 -3 197 -22 0 -19
-8 -20 -197 -23 l-198 -2 198 -3 c190 -2 197 -3 197 -22 0 -19 -7 -20 -195
-20 -123 0 -195 -4 -195 -10 0 -6 74 -11 198 -12 l197 -2 -200 -6 -200 -6 198
-2 c123 -1 197 -6 197 -12 0 -6 -74 -11 -197 -12 l-198 -2 200 -6 200 -5 -200
-5 -200 -5 198 -3 c123 -1 197 -6 197 -12 0 -6 -74 -11 -197 -12 l-198 -2 200
-6 200 -5 -200 -5 -200 -5 198 -3 c120 -1 197 -6 197 -12 0 -6 -77 -11 -197
-13 l-198 -2 198 -3 c189 -2 197 -3 197 -22 0 -19 -8 -20 -197 -23 l-198 -2
198 -3 c190 -2 197 -3 197 -22 0 -19 -7 -20 -195 -20 -123 0 -195 -4 -195 -10
0 -6 74 -11 198 -12 l197 -2 -200 -6 -200 -6 198 -2 c123 -1 197 -6 197 -12 0
-6 -74 -11 -197 -12 l-198 -2 200 -6 200 -5 -200 -5 -200 -5 198 -3 c123 -1
197 -6 197 -12 0 -6 -74 -11 -197 -12 l-198 -2 200 -6 200 -5 -200 -5 -200 -5
198 -3 c263 -3 263 -21 0 -25 l-198 -2 198 -3 c189 -2 197 -3 197 -22 0 -19
-8 -20 -197 -23 l-198 -2 198 -3 c190 -2 197 -3 197 -22 0 -19 -7 -20 -195
-20 -123 0 -195 -4 -195 -10 0 -6 74 -11 198 -12 l197 -2 -200 -6 -200 -5 200
-5 200 -5 -197 -3 c-124 -1 -198 -6 -198 -12 0 -6 72 -10 195 -10 188 0 195
-1 195 -20 0 -19 -8 -20 -197 -23 l-198 -2 198 -3 c190 -2 197 -3 197 -22 0
-19 -7 -20 -195 -20 -123 0 -195 -4 -195 -10 0 -6 72 -10 195 -10 167 0 195
-2 195 -15 0 -13 -28 -15 -195 -15 -123 0 -195 -4 -195 -10 0 -6 72 -10 195
-10 188 0 195 -1 195 -20 0 -19 -8 -20 -197 -23 l-198 -2 198 -3 c189 -2 197
-3 197 -22 0 -19 -8 -20 -197 -23 l-198 -2 198 -3 c189 -2 197 -3 197 -22 0
-19 -8 -20 -197 -23 l-198 -2 198 -3 c189 -2 197 -3 197 -22 0 -19 -8 -20
-197 -23 l-198 -2 198 -3 c190 -2 197 -3 197 -22 0 -19 -7 -20 -195 -20 -123
0 -195 -4 -195 -10 0 -6 72 -10 195 -10 188 0 195 -1 195 -20 0 -19 -8 -20
-197 -23 l-198 -2 197 -3 c186 -2 198 -3 208 -22 11 -20 7 -20 -197 -22 l-208
-2 230 -8 c127 -5 422 -11 658 -13 l427 -6 0 336 0 335 -115 0 -115 0 0 130 0
129 113 3 112 3 5 150 c5 138 7 154 33 207 35 71 88 120 161 147 47 17 79 21
181 21 68 0 130 -3 139 -6 13 -5 16 -25 16 -120 l0 -114 -82 -1 c-99 0 -148
-15 -165 -49 -8 -15 -13 -66 -13 -132 l0 -108 125 0 c145 0 133 16 110 -145
-8 -55 -15 -103 -15 -107 0 -5 -49 -8 -110 -8 l-110 0 0 -336 0 -335 233 6
c127 3 336 9 462 13 l230 8 -208 2 c-204 2 -207 2 -197 22 10 18 23 20 208 23
l197 2 -197 3 c-191 2 -198 3 -198 22 0 19 7 20 195 20 123 0 195 4 195 10 0
6 -72 10 -195 10 -188 0 -195 1 -195 20 0 19 8 20 198 23 l197 2 -197 3 c-190
2 -198 3 -198 22 0 19 8 20 198 23 l197 2 -197 3 c-190 2 -198 3 -198 22 0 19
8 20 198 23 l197 2 -197 3 c-190 2 -198 3 -198 22 0 19 8 20 198 23 l197 2
-197 3 c-191 2 -198 3 -198 22 0 19 7 20 195 20 123 0 195 4 195 10 0 6 -72
10 -195 10 -167 0 -195 2 -195 15 0 13 28 15 195 15 123 0 195 4 195 10 0 6
-72 10 -195 10 -188 0 -195 1 -195 20 0 19 8 20 198 23 l197 2 -197 3 c-191 2
-198 3 -198 22 0 19 7 20 195 20 123 0 195 4 195 10 0 6 -74 11 -197 12 l-198
2 200 6 200 5 -200 5 -200 5 198 3 c123 1 197 6 197 12 0 6 -72 10 -195 10
-188 0 -195 1 -195 20 0 19 8 20 198 23 l197 2 -197 3 c-190 2 -198 3 -198 22
0 19 8 20 198 23 l197 2 -197 3 c-124 1 -198 6 -198 12 0 6 74 11 198 12 l197
2 -200 6 -200 5 200 5 200 5 -197 3 c-124 1 -198 6 -198 12 0 6 74 11 198 12
l197 2 -200 6 -200 5 200 5 200 5 -197 3 c-124 1 -198 6 -198 12 0 6 74 11
198 12 l197 2 -200 6 -200 6 198 2 c123 1 197 6 197 12 0 6 -72 10 -195 10
-188 0 -195 1 -195 20 0 19 8 20 198 23 l197 2 -197 3 c-190 2 -198 3 -198 22
0 19 8 20 198 23 l197 2 -197 3 c-124 1 -198 6 -198 12 0 6 74 11 198 12 l197
2 -200 6 -200 5 200 5 200 5 -197 3 c-124 1 -198 6 -198 12 0 6 74 11 198 12
l197 2 -200 6 -200 5 200 5 200 5 -197 3 c-124 1 -198 6 -198 12 0 6 74 11
198 12 l197 2 -200 6 -200 6 198 2 c123 1 197 6 197 12 0 6 -72 10 -195 10
-188 0 -195 1 -195 20 0 19 8 20 198 23 l197 2 -197 3 c-190 2 -198 3 -198 22
0 19 8 20 198 23 l197 2 -197 3 c-190 2 -198 3 -198 22 0 19 8 20 198 23 l197
2 -197 3 c-124 1 -198 6 -198 12 0 6 74 11 198 12 l197 2 -200 6 -200 5 200 5
200 5 -197 3 c-124 1 -198 6 -198 12 0 6 74 11 198 12 l197 2 -200 6 -200 5
200 5 200 5 -197 3 c-121 1 -198 6 -198 12 0 6 77 11 198 13 l197 2 -197 3
c-264 3 -264 21 0 25 l197 2 -197 3 c-190 2 -198 3 -198 22 0 19 8 20 198 23
l197 2 -197 3 c-124 1 -198 6 -198 12 0 6 74 11 198 12 l197 2 -200 6 -200 5
200 5 200 5 -197 3 c-124 1 -198 6 -198 12 0 6 74 11 198 12 l197 2 -200 6
-200 5 200 5 200 5 -197 3 c-121 1 -198 6 -198 12 0 6 77 11 198 13 l197 2
-197 3 c-124 1 -198 6 -198 12 0 6 74 11 198 12 l197 2 -200 6 -200 5 200 5
200 5 -202 3 c-273 3 -273 21 0 24 l202 2 -215 6 -215 6 213 2 c133 1 212 6
212 12 0 7 -423 10 -1250 10 -827 0 -1250 -3 -1250 -10z"/>
<path d="M622 43 c346 -2 910 -2 1255 0 346 1 63 2 -627 2 -690 0 -973 -1
-628 -2z"/>
</g>
</svg>
