<?xml version="1.0" standalone="no"?>
<!DOCTYPE svg PUBLIC "-//W3C//DTD SVG 20010904//EN"
 "http://www.w3.org/TR/2001/REC-SVG-20010904/DTD/svg10.dtd">
<svg version="1.0" xmlns="http://www.w3.org/2000/svg"
 width="250.000000pt" height="250.000000pt" viewBox="0 0 250.000000 250.000000"
 preserveAspectRatio="xMidYMid meet">
<metadata>
Created by potrace 1.15, written by Peter Selinger 2001-2017
</metadata>
<g transform="translate(0.000000,250.000000) scale(0.100000,-0.100000)"
fill="#000000" stroke="none">
<path d="M1029 2494 c-1 -5 -1 -13 0 -18 1 -5 -5 -4 -13 3 -18 15 -36 6 -35
-17 1 -15 2 -15 6 1 5 18 23 24 23 7 0 -14 27 -12 34 3 5 10 7 10 12 0 3 -7
12 -13 19 -13 7 0 16 6 19 13 5 10 7 10 12 0 3 -7 12 -13 19 -13 7 0 16 6 19
13 5 10 7 10 12 0 3 -7 12 -13 19 -13 7 0 16 6 19 13 5 10 7 10 12 0 3 -7 12
-13 19 -13 7 0 16 6 19 13 5 10 7 10 12 0 3 -7 12 -13 19 -13 7 0 16 6 19 13
5 10 7 10 12 0 3 -7 12 -13 19 -13 7 0 16 6 19 13 5 10 7 10 12 0 3 -7 12 -13
19 -13 7 0 16 6 19 13 5 10 7 10 12 0 3 -7 12 -13 19 -13 7 0 16 6 19 13 5 10
7 10 12 0 3 -7 12 -13 19 -13 7 0 16 6 19 13 5 10 7 10 12 0 3 -7 12 -13 19
-13 7 0 16 6 19 13 5 10 7 10 12 0 3 -7 12 -13 19 -13 7 0 16 6 19 13 5 10 7
10 12 0 3 -7 12 -13 19 -13 7 0 16 6 19 13 5 10 7 10 12 0 3 -7 12 -13 19 -13
7 0 16 6 19 13 5 10 7 10 12 0 3 -7 12 -13 19 -13 7 0 16 6 19 13 5 10 7 10
12 0 3 -7 12 -13 19 -13 7 0 16 6 19 13 5 10 7 10 12 0 3 -7 12 -13 19 -13 7
0 16 6 19 13 5 10 7 10 12 0 3 -7 12 -13 19 -13 7 0 16 6 19 13 5 10 7 10 12
0 3 -7 12 -13 19 -13 7 0 16 6 19 13 5 10 7 10 12 0 4 -10 69 -13 275 -13 234
0 268 2 263 15 -4 8 -10 15 -16 15 -5 0 -6 -4 -3 -10 3 -5 -3 -10 -14 -10 -12
0 -21 5 -21 10 0 6 -5 10 -11 10 -5 0 -7 -4 -4 -10 3 -5 -3 -10 -14 -10 -12 0
-21 5 -21 10 0 6 -5 10 -11 10 -5 0 -7 -4 -4 -10 3 -5 -3 -10 -14 -10 -12 0
-21 5 -21 10 0 6 -5 10 -11 10 -5 0 -7 -4 -4 -10 3 -5 -3 -10 -14 -10 -12 0
-21 5 -21 10 0 6 -5 10 -11 10 -5 0 -7 -4 -4 -10 3 -5 -3 -10 -14 -10 -12 0
-21 5 -21 10 0 6 -5 10 -11 10 -5 0 -7 -4 -4 -10 3 -5 -3 -10 -14 -10 -12 0
-21 5 -21 10 0 6 -5 10 -11 10 -5 0 -7 -4 -4 -10 3 -5 -3 -10 -14 -10 -12 0
-21 5 -21 10 0 6 -5 10 -11 10 -5 0 -7 -4 -4 -10 3 -5 -3 -10 -14 -10 -12 0
-21 5 -21 10 0 6 -5 10 -11 10 -5 0 -7 -4 -4 -10 3 -5 -3 -10 -14 -10 -12 0
-21 5 -21 10 0 6 -5 10 -11 10 -5 0 -7 -4 -4 -10 3 -5 -3 -10 -14 -10 -12 0
-21 4 -21 9 0 6 -8 9 -17 9 -10 0 -25 1 -33 3 -8 2 -14 -2 -12 -9 1 -9 -5 -8
-23 4 -23 15 -30 13 -26 -9 1 -4 -10 0 -24 9 -23 15 -30 13 -26 -9 1 -4 -10 0
-24 9 -23 15 -30 13 -26 -9 1 -4 -10 0 -24 9 -23 15 -30 13 -26 -9 1 -4 -10 0
-24 9 -23 15 -30 13 -26 -9 1 -4 -10 0 -24 9 -23 15 -30 13 -26 -9 1 -4 -10 0
-24 9 -23 15 -30 13 -26 -9 1 -4 -10 0 -24 9 -23 15 -30 13 -26 -9 1 -4 -10 0
-24 9 -23 15 -30 13 -26 -9 1 -4 -10 0 -24 9 -23 15 -30 13 -26 -9 1 -4 -10 0
-24 9 -23 15 -30 13 -26 -9 1 -4 -10 0 -24 9 -23 15 -30 13 -26 -9 1 -4 -10 0
-24 9 -23 15 -30 13 -26 -9 1 -4 -10 0 -24 9 -23 15 -30 13 -26 -9 1 -4 -10 0
-24 9 -23 15 -30 13 -26 -9 1 -4 -10 0 -24 9 -23 15 -30 13 -26 -9 1 -4 -10 0
-24 9 -23 15 -30 13 -26 -9 1 -4 -10 0 -24 9 -14 9 -26 12 -26 8z"/>
<path d="M254 2374 c6 -6 13 -9 16 -5 10 12 33 12 41 -1 5 -7 9 -8 9 -3 0 15
40 16 40 2 0 -8 3 -8 8 -2 11 16 34 17 43 3 5 -7 9 -8 9 -3 0 6 9 11 20 12 12
1 20 -4 20 -13 0 -9 -6 -14 -12 -11 -7 2 -28 -5 -46 -15 -21 -11 -31 -14 -27
-6 4 7 1 6 -7 -3 -7 -8 -27 -22 -45 -29 -17 -8 -29 -19 -25 -25 3 -5 -1 -4
-10 2 -15 13 -28 8 -28 -11 0 -6 5 -4 10 4 5 8 10 10 10 4 0 -11 -32 -44 -43
-44 -3 0 -4 8 -1 18 5 13 4 14 -4 3 -6 -8 -8 -21 -4 -29 3 -9 1 -13 -5 -9 -6
4 -14 -4 -17 -18 -10 -39 -22 -22 -19 25 1 23 -1 40 -4 36 -4 -3 -6 -29 -6
-56 1 -28 -5 -63 -13 -78 -7 -15 -14 -33 -14 -41 0 -8 -3 -11 -7 -8 -4 4 -6
48 -6 99 0 62 -2 86 -9 74 -5 -9 -14 -13 -20 -10 -7 4 -8 2 -4 -5 4 -6 12 -9
18 -5 6 4 8 -3 6 -17 -2 -13 -9 -23 -16 -21 -8 1 -11 -2 -7 -8 3 -6 11 -8 17
-4 6 4 8 -3 6 -17 -2 -13 -9 -23 -16 -21 -8 1 -11 -2 -7 -8 3 -6 11 -8 17 -4
6 4 8 -3 6 -17 -2 -13 -9 -23 -16 -21 -8 1 -11 -2 -7 -8 3 -6 11 -8 17 -4 6 4
8 -3 6 -17 -2 -13 -9 -23 -16 -21 -8 1 -11 -2 -7 -8 3 -6 11 -8 16 -5 9 6 8
-2 -6 -40 -4 -11 -8 -37 -7 -57 0 -30 -3 -38 -18 -38 -24 0 -45 -26 -29 -36 7
-4 9 -3 5 4 -3 6 -2 13 4 17 5 3 10 -2 11 -12 0 -16 1 -16 9 2 8 19 9 19 9 -2
1 -13 -5 -23 -13 -23 -21 0 -40 -26 -25 -36 7 -4 9 -3 5 4 -3 6 -2 13 4 17 5
3 10 -2 11 -12 0 -16 1 -16 9 2 8 19 9 19 9 -2 1 -13 -5 -23 -13 -23 -21 0
-40 -26 -25 -36 7 -4 9 -3 5 4 -3 6 -2 13 4 17 5 3 10 -2 11 -12 0 -16 1 -16
9 2 8 19 9 19 9 -2 1 -13 -5 -23 -13 -23 -21 0 -40 -26 -25 -36 7 -4 9 -3 5 4
-3 6 -2 13 4 17 5 3 10 -2 11 -12 0 -16 1 -16 9 2 8 19 9 19 9 -2 1 -13 -5
-23 -13 -23 -21 0 -40 -26 -25 -36 7 -4 9 -3 5 4 -3 6 -2 13 4 17 5 3 10 -2
11 -12 0 -16 1 -16 9 2 8 19 9 19 9 -2 1 -13 -5 -23 -13 -23 -21 0 -40 -26
-25 -36 7 -4 9 -3 5 4 -3 6 -2 13 4 17 5 3 10 -2 11 -12 0 -16 1 -16 9 2 8 19
9 19 9 -2 1 -13 -5 -23 -13 -23 -21 0 -40 -26 -25 -36 7 -4 9 -3 5 4 -3 6 -2
13 4 17 5 3 10 -2 11 -12 0 -16 1 -16 9 2 8 19 9 19 9 -2 1 -13 -5 -23 -13
-23 -21 0 -40 -26 -25 -36 7 -4 9 -3 5 4 -3 6 -2 13 4 17 5 3 10 -2 11 -12 0
-16 1 -16 9 2 7 17 9 15 9 -12 1 -18 -3 -33 -9 -33 -5 0 -10 -5 -10 -11 0 -5
4 -7 10 -4 5 3 10 -3 10 -14 0 -12 -4 -21 -10 -21 -5 0 -10 -5 -10 -11 0 -5 4
-7 10 -4 5 3 10 -3 10 -14 0 -12 -4 -21 -10 -21 -5 0 -10 -5 -10 -11 0 -5 4
-7 10 -4 5 3 10 -3 10 -14 0 -12 -4 -21 -10 -21 -5 0 -10 -5 -10 -11 0 -5 4
-7 10 -4 5 3 10 -3 10 -14 0 -12 -4 -21 -10 -21 -5 0 -10 -5 -10 -11 0 -5 4
-7 10 -4 5 3 10 -3 10 -14 0 -12 -4 -21 -10 -21 -5 0 -10 -5 -10 -11 0 -5 5
-7 10 -4 6 3 10 -3 10 -14 0 -12 -4 -21 -10 -21 -5 0 -10 -5 -10 -11 0 -5 4
-7 10 -4 5 3 10 -3 10 -14 0 -12 -4 -21 -10 -21 -5 0 -10 -5 -10 -11 0 -5 4
-7 10 -4 5 3 10 -3 10 -14 0 -12 -4 -21 -10 -21 -5 0 -10 -5 -10 -11 0 -5 4
-7 10 -4 5 3 10 -3 10 -14 0 -12 -4 -21 -10 -21 -5 0 -10 -5 -10 -11 0 -5 4
-7 10 -4 5 3 10 -3 10 -14 0 -12 -4 -21 -10 -21 -5 0 -10 -5 -10 -11 0 -5 4
-7 10 -4 5 3 10 -3 10 -14 0 -12 -4 -21 -10 -21 -5 0 -10 -5 -10 -11 0 -5 4
-7 10 -4 5 3 10 -3 10 -14 0 -12 -4 -21 -10 -21 -5 0 -10 -5 -10 -11 0 -5 4
-7 10 -4 5 3 10 1 10 -4 0 -18 16 -13 64 20 25 16 63 33 83 36 21 3 43 10 49
15 15 11 43 1 74 -28 l25 -23 0 392 c0 426 4 464 56 573 35 75 127 166 201
198 107 48 146 51 573 51 354 -1 407 -3 464 -19 173 -48 270 -142 327 -316 15
-48 18 -104 22 -428 4 -396 -3 -501 -39 -595 -54 -140 -194 -253 -339 -274
-63 -9 -66 -13 -29 -35 56 -34 107 -100 155 -204 16 -32 32 -62 37 -65 5 -4 4
-10 -2 -14 -9 -5 -9 -10 0 -21 8 -10 8 -18 0 -27 -8 -10 -7 -17 1 -25 8 -8 8
-15 0 -25 -13 -15 2 -37 26 -37 10 0 9 4 -3 17 -15 15 -15 18 -2 27 13 10 13
13 -1 25 -13 13 -13 16 0 25 13 10 13 13 1 24 -19 18 -7 33 25 31 15 -1 35 2
45 6 18 8 24 -9 7 -20 -8 -5 -7 -11 1 -21 8 -10 8 -18 0 -27 -8 -10 -7 -17 1
-25 8 -8 8 -15 0 -25 -13 -15 2 -37 26 -37 10 0 9 4 -3 17 -15 15 -15 18 -2
27 13 10 13 13 -1 25 -13 13 -13 16 0 25 13 10 13 13 1 25 -12 11 -12 15 4 31
10 9 20 16 22 14 2 -2 10 1 17 7 8 6 19 7 26 2 7 -4 119 -8 249 -8 205 -1 236
1 234 14 -1 13 -32 15 -209 16 -115 0 -210 -3 -212 -7 -3 -4 -12 -5 -22 -2
-14 5 -15 4 -2 -5 12 -8 11 -10 -7 -8 -17 1 -20 4 -11 15 6 7 17 11 25 8 7 -3
13 -1 13 4 0 6 9 10 21 10 13 0 18 4 13 12 -5 8 -3 8 7 2 8 -5 98 -9 200 -9
161 -1 186 1 184 14 -1 13 -27 16 -166 16 -172 1 -201 -2 -177 -16 9 -6 6 -8
-10 -6 -19 1 -15 9 40 66 35 36 68 69 73 73 6 4 6 8 2 8 -5 0 1 13 13 30 12
16 27 30 33 30 9 0 9 -2 0 -8 -7 -5 34 -8 91 -8 87 0 103 3 101 16 -2 12 -20
15 -103 14 -83 0 -99 2 -91 13 7 7 8 13 3 13 -4 0 -3 5 3 11 6 6 9 17 7 24 -3
7 0 16 7 21 7 4 10 3 6 -2 -3 -6 29 -10 83 -10 71 0 87 3 78 13 -8 10 -14 10
-24 2 -10 -8 -18 -8 -27 0 -10 8 -17 7 -25 -1 -8 -8 -15 -8 -25 0 -10 9 -16 9
-25 0 -8 -8 -15 -8 -26 2 -19 15 -12 32 9 23 9 -3 15 1 15 8 0 9 3 10 8 4 11
-16 34 -17 43 -3 5 7 9 8 9 3 0 -15 40 -16 40 -2 0 8 3 8 8 2 9 -13 32 -17 32
-6 0 18 -26 31 -38 19 -8 -8 -15 -8 -25 0 -10 9 -16 9 -25 0 -8 -8 -15 -8 -25
0 -10 8 -17 8 -24 1 -13 -13 -33 -3 -33 16 0 9 6 12 15 9 9 -4 15 0 15 7 0 9
3 10 8 4 11 -16 34 -17 43 -3 5 7 9 8 9 3 0 -15 40 -16 40 -2 0 8 3 8 8 2 9
-13 32 -17 32 -6 0 18 -26 31 -38 19 -8 -8 -15 -8 -25 0 -10 9 -16 9 -25 0 -8
-8 -15 -8 -25 0 -10 8 -17 8 -24 1 -13 -13 -33 -3 -33 16 0 9 6 12 15 9 9 -4
15 0 15 7 0 9 3 10 8 4 11 -16 34 -17 43 -3 5 7 9 8 9 3 0 -15 40 -16 40 -2 0
8 3 8 8 2 9 -13 32 -17 32 -6 0 18 -26 31 -38 19 -8 -8 -15 -8 -25 0 -10 9
-16 9 -25 0 -8 -8 -15 -8 -25 0 -10 8 -17 8 -24 1 -13 -13 -33 -3 -33 16 0 9
6 12 15 9 9 -4 15 0 15 7 0 9 3 10 8 4 11 -16 34 -17 43 -3 5 7 9 8 9 3 0 -15
40 -16 40 -2 0 8 3 8 8 2 9 -13 32 -17 32 -6 0 18 -26 31 -38 19 -8 -8 -15 -8
-25 0 -10 9 -16 9 -25 0 -8 -8 -15 -8 -25 0 -10 8 -17 8 -24 1 -13 -13 -33 -3
-33 16 0 9 6 12 15 9 9 -4 15 0 15 7 0 9 3 10 8 4 11 -16 34 -17 43 -3 5 7 9
8 9 3 0 -15 40 -16 40 -2 0 8 3 8 8 2 9 -13 32 -17 32 -6 0 18 -26 31 -38 19
-8 -8 -15 -8 -25 0 -10 9 -16 9 -25 0 -8 -8 -15 -8 -25 0 -10 8 -17 8 -24 1
-13 -13 -33 -3 -33 16 0 9 6 12 15 9 9 -4 15 0 15 7 0 9 3 10 8 4 11 -16 34
-17 43 -3 5 7 9 8 9 3 0 -15 40 -16 40 -2 0 8 3 8 8 2 9 -13 32 -17 32 -6 0
18 -26 31 -38 19 -8 -8 -15 -8 -25 0 -10 9 -16 9 -25 0 -8 -8 -15 -8 -25 0
-10 8 -17 8 -24 1 -13 -13 -33 -3 -33 16 0 9 6 12 15 9 9 -4 15 0 15 7 0 9 3
10 8 4 11 -16 34 -17 43 -3 5 7 9 8 9 3 0 -15 40 -16 40 -2 0 8 3 8 8 2 9 -13
32 -17 32 -6 0 18 -26 31 -38 19 -8 -8 -15 -8 -25 0 -10 9 -16 9 -25 0 -8 -8
-15 -8 -25 0 -10 8 -17 8 -24 1 -13 -13 -33 -3 -33 16 0 9 6 12 15 9 9 -4 15
0 15 7 0 9 3 10 8 4 11 -16 34 -17 43 -3 5 7 9 8 9 3 0 -15 40 -16 40 -2 0 8
3 8 8 2 9 -13 32 -18 32 -7 0 19 -23 32 -37 21 -9 -8 -17 -8 -26 0 -10 8 -17
7 -25 -1 -8 -8 -15 -8 -25 0 -10 8 -17 8 -24 1 -13 -13 -33 -3 -33 16 0 9 6
12 15 9 9 -4 15 0 15 7 0 9 3 10 8 4 11 -16 34 -17 43 -3 5 7 9 8 9 3 0 -15
40 -16 40 -2 0 8 3 8 8 2 9 -13 32 -17 32 -6 0 18 -26 31 -38 19 -8 -8 -15 -8
-25 0 -10 9 -16 9 -25 0 -8 -8 -15 -8 -25 0 -10 8 -17 8 -24 1 -13 -13 -33 -3
-33 16 0 9 6 12 15 9 9 -4 15 0 15 7 0 9 3 10 8 4 11 -16 34 -17 43 -3 5 7 9
8 9 3 0 -15 40 -16 40 -2 0 8 3 8 8 2 9 -13 32 -17 32 -6 0 18 -26 31 -38 19
-8 -8 -15 -8 -25 0 -10 9 -16 9 -25 0 -8 -8 -15 -8 -25 0 -10 8 -17 8 -24 1
-13 -13 -33 -3 -33 16 0 9 6 12 15 9 9 -4 15 0 15 7 0 9 3 10 8 4 11 -16 34
-17 43 -3 5 7 9 8 9 3 0 -15 40 -16 40 -2 0 8 3 8 8 2 9 -13 32 -17 32 -6 0
18 -26 31 -38 19 -8 -8 -15 -8 -25 0 -10 9 -16 9 -25 0 -8 -8 -15 -8 -25 0
-10 8 -17 8 -24 1 -13 -13 -33 -3 -33 16 0 9 6 12 15 9 9 -4 15 0 15 7 0 9 3
10 8 4 11 -16 34 -17 43 -3 5 7 9 8 9 3 0 -15 40 -16 40 -2 0 8 3 8 8 2 9 -13
32 -17 32 -6 0 18 -26 31 -38 19 -8 -8 -15 -8 -25 0 -10 9 -16 9 -25 0 -8 -8
-15 -8 -25 0 -10 8 -17 8 -24 1 -13 -13 -33 -3 -33 16 0 9 6 12 15 9 9 -4 15
0 15 7 0 9 3 10 8 4 11 -16 34 -17 43 -3 5 7 9 8 9 3 0 -15 40 -16 40 -2 0 8
3 8 8 2 9 -13 32 -17 32 -6 0 18 -26 31 -38 19 -8 -8 -15 -8 -25 0 -10 9 -16
9 -25 0 -8 -8 -15 -8 -25 0 -10 8 -17 8 -24 1 -13 -13 -33 -3 -33 16 0 9 6 12
15 9 9 -4 15 0 15 7 0 9 3 10 8 4 11 -16 34 -17 43 -3 5 7 9 8 9 3 0 -15 40
-16 40 -2 0 8 3 8 8 2 9 -13 32 -17 32 -6 0 18 -26 31 -38 19 -8 -8 -15 -8
-25 0 -10 9 -16 9 -25 0 -8 -8 -15 -8 -25 0 -10 8 -17 8 -24 1 -13 -13 -33 -3
-33 16 0 9 6 12 15 9 9 -4 15 0 15 7 0 9 3 10 8 4 11 -16 34 -17 43 -3 5 7 9
8 9 3 0 -15 40 -16 40 -2 0 8 3 8 8 2 9 -13 32 -17 32 -6 0 18 -26 31 -38 19
-8 -8 -15 -8 -25 0 -10 9 -16 9 -25 0 -8 -8 -15 -8 -25 0 -10 8 -17 8 -24 1
-13 -13 -33 -3 -33 16 0 9 6 12 15 9 9 -4 15 0 15 7 0 9 3 10 8 4 11 -16 34
-17 43 -3 5 7 9 8 9 3 0 -15 40 -16 40 -2 0 8 3 8 8 2 9 -13 32 -17 32 -6 0
18 -26 31 -38 19 -8 -8 -15 -8 -25 0 -10 9 -16 9 -25 0 -8 -8 -15 -8 -25 0
-10 8 -17 8 -24 1 -13 -13 -33 -3 -33 16 0 9 6 12 15 9 9 -4 15 0 15 7 0 9 3
10 8 4 11 -16 34 -17 43 -3 5 7 9 8 9 3 0 -15 40 -16 40 -2 0 8 3 8 8 2 9 -13
32 -17 32 -6 0 18 -26 31 -38 19 -8 -8 -15 -8 -25 0 -10 9 -16 9 -25 0 -8 -8
-15 -8 -25 0 -10 8 -17 8 -24 1 -13 -13 -33 -3 -33 16 0 9 6 12 15 9 9 -4 15
0 15 7 0 9 3 10 8 4 11 -16 34 -17 43 -3 5 7 9 8 9 3 0 -15 40 -16 40 -2 0 8
3 8 8 2 9 -13 32 -17 32 -6 0 18 -26 31 -38 19 -8 -8 -15 -8 -25 0 -10 9 -16
9 -25 0 -8 -8 -15 -8 -25 0 -10 8 -17 8 -24 1 -13 -13 -33 -3 -33 16 0 9 6 12
15 9 9 -4 15 0 15 7 0 9 3 10 8 4 11 -16 34 -17 43 -3 5 7 9 8 9 3 0 -15 40
-16 40 -2 0 8 3 8 8 2 9 -13 32 -17 32 -6 0 18 -26 31 -38 19 -8 -8 -15 -8
-25 0 -10 9 -16 9 -25 0 -8 -8 -15 -8 -25 0 -10 8 -17 8 -24 1 -13 -13 -33 -4
-33 14 0 9 25 12 85 12 62 -1 82 2 75 10 -6 7 -8 14 -5 17 3 2 -2 5 -9 5 -8 0
-14 -5 -13 -11 1 -6 -5 -11 -13 -11 -8 0 -14 5 -13 11 1 6 -4 11 -12 11 -8 0
-13 -5 -12 -11 1 -6 -5 -11 -13 -11 -8 0 -14 5 -13 11 1 6 -4 11 -12 11 -8 0
-13 -5 -12 -11 1 -6 -4 -11 -12 -11 -8 0 -15 9 -17 20 -3 19 2 20 81 20 62 -1
82 2 75 10 -6 7 -8 14 -5 17 3 2 -2 5 -9 5 -8 0 -14 -5 -13 -11 1 -6 -5 -11
-13 -11 -8 0 -14 5 -13 11 1 6 -4 11 -12 11 -8 0 -13 -5 -12 -11 1 -6 -5 -11
-13 -11 -8 0 -14 5 -13 11 1 6 -4 11 -12 11 -8 0 -13 -5 -12 -11 1 -6 -4 -11
-12 -11 -8 0 -15 9 -17 20 -3 19 2 20 81 20 62 -1 82 2 75 10 -6 7 -8 14 -5
17 3 2 -2 5 -9 5 -8 0 -14 -5 -13 -11 1 -6 -5 -11 -13 -11 -8 0 -14 5 -13 11
1 6 -4 11 -12 11 -8 0 -13 -5 -12 -11 1 -6 -5 -11 -13 -11 -8 0 -14 5 -13 11
1 6 -4 11 -12 11 -8 0 -13 -5 -12 -11 1 -6 -4 -11 -12 -11 -8 0 -15 9 -17 20
-3 19 2 20 81 20 62 -1 82 2 75 10 -6 7 -8 14 -5 17 3 2 -2 5 -9 5 -8 0 -14
-5 -13 -11 1 -6 -5 -11 -13 -11 -8 0 -14 5 -13 11 1 6 -4 11 -12 11 -8 0 -13
-5 -12 -11 1 -6 -5 -11 -13 -11 -8 0 -14 5 -13 11 1 6 -4 11 -12 11 -8 0 -13
-5 -12 -11 1 -6 -4 -11 -12 -11 -8 0 -15 9 -17 20 -3 19 2 20 81 20 62 -1 82
2 75 10 -6 7 -8 14 -5 17 3 2 -2 5 -9 5 -8 0 -14 -5 -13 -11 1 -6 -5 -11 -13
-11 -8 0 -14 5 -13 11 1 6 -4 11 -12 11 -8 0 -13 -5 -12 -11 1 -6 -5 -11 -13
-11 -8 0 -14 5 -13 11 1 6 -4 11 -12 11 -8 0 -13 -5 -12 -11 1 -6 -4 -11 -12
-11 -8 0 -15 9 -17 20 -3 19 2 20 81 20 62 -1 82 2 75 10 -6 7 -8 14 -5 17 3
2 -2 5 -9 5 -8 0 -14 -5 -13 -11 1 -6 -5 -11 -13 -11 -8 0 -14 5 -13 11 1 6
-4 11 -12 11 -8 0 -13 -5 -12 -11 1 -6 -5 -11 -13 -11 -8 0 -14 5 -13 11 1 6
-4 11 -12 11 -8 0 -13 -5 -12 -11 1 -6 -4 -11 -12 -11 -8 0 -15 9 -17 20 -3
19 2 20 81 20 62 -1 82 2 75 10 -6 7 -8 14 -5 17 3 2 -2 5 -9 5 -8 0 -14 -5
-13 -11 1 -6 -5 -11 -13 -11 -8 0 -14 5 -13 11 1 6 -4 11 -12 11 -8 0 -13 -5
-12 -11 1 -6 -5 -11 -13 -11 -8 0 -14 5 -13 11 1 6 -4 11 -12 11 -8 0 -13 -5
-12 -11 1 -6 -4 -11 -12 -11 -8 0 -15 9 -17 20 -3 19 2 20 81 20 62 -1 82 2
75 10 -6 7 -8 14 -5 17 3 2 -2 5 -9 5 -8 0 -14 -5 -13 -11 1 -6 -5 -11 -13
-11 -8 0 -14 5 -13 11 1 6 -4 11 -12 11 -8 0 -13 -5 -12 -11 1 -6 -5 -11 -13
-11 -8 0 -14 5 -13 11 1 6 -4 11 -12 11 -8 0 -13 -5 -12 -11 1 -6 -4 -11 -12
-11 -8 0 -15 9 -17 20 -3 19 2 20 81 20 62 -1 82 2 75 10 -6 7 -8 14 -5 17 3
2 -2 5 -9 5 -8 0 -14 -5 -13 -11 1 -6 -5 -11 -13 -11 -8 0 -14 5 -13 11 1 6
-4 11 -12 11 -8 0 -13 -5 -12 -11 1 -6 -5 -11 -13 -11 -8 0 -14 5 -13 11 1 6
-4 11 -12 11 -8 0 -13 -5 -12 -11 1 -6 -4 -11 -12 -11 -8 0 -15 9 -17 20 -3
19 2 20 81 20 62 -1 82 2 75 10 -6 7 -8 14 -5 17 3 2 -2 5 -9 5 -8 0 -14 -5
-13 -11 1 -6 -5 -11 -13 -11 -8 0 -14 5 -13 11 1 6 -4 11 -12 11 -8 0 -13 -5
-12 -11 1 -6 -5 -11 -13 -11 -8 0 -14 5 -13 11 1 6 -4 11 -12 11 -8 0 -12 -4
-9 -8 2 -4 0 -11 -6 -14 -16 -10 -37 12 -43 43 -5 25 -4 25 9 7 8 -10 14 -14
14 -7 0 6 -9 17 -20 25 -10 7 -22 28 -25 47 -3 18 -17 46 -30 62 -14 17 -23
34 -19 39 3 5 -2 9 -10 9 -9 0 -16 8 -16 18 0 14 2 15 10 2 5 -8 10 -10 10 -4
0 6 -8 18 -17 25 -11 10 -14 10 -9 2 11 -20 -3 -15 -27 8 -12 12 -17 19 -10
15 6 -3 15 -1 18 5 5 7 -2 10 -21 7 -19 -2 -28 1 -26 10 1 6 -5 12 -13 12 -8
0 -15 5 -15 11 0 5 4 8 9 4 5 -3 12 -1 16 5 3 5 -3 10 -14 10 -10 0 -22 -6
-24 -12 -4 -10 -6 -10 -6 0 -1 6 -10 12 -20 12 -11 0 -22 4 -25 9 -3 4 -19 11
-36 15 -17 3 -29 10 -26 15 4 5 -26 12 -66 15 -117 8 -1359 12 -1365 4 -2 -5
-9 -8 -14 -8 -6 0 -8 4 -5 9 9 13 -22 7 -36 -7 -15 -15 -38 -16 -38 -1 0 5 4
8 9 4 5 -3 12 -2 14 3 3 4 -52 8 -122 8 -99 0 -126 -3 -117 -12z"/>
<path d="M864 1930 c-149 -13 -239 -67 -284 -173 -32 -74 -44 -275 -35 -605
l7 -272 20 37 c22 43 65 86 78 78 5 -3 11 -1 15 5 10 16 117 0 175 -28 30 -14
57 -28 60 -32 3 -3 30 -18 60 -33 30 -15 44 -20 30 -10 -14 9 -48 40 -76 68
-166 167 -161 441 11 604 98 93 234 136 357 113 259 -48 414 -298 338 -543
-37 -120 -117 -211 -236 -266 -54 -25 -69 -28 -171 -28 -62 0 -113 -1 -113 -1
0 -1 21 -9 48 -19 111 -42 269 -125 237 -125 -4 0 -3 -6 2 -12 6 -7 16 -30 22
-50 l13 -38 97 0 c157 0 252 39 310 127 53 79 56 112 56 543 0 454 -3 472 -81
559 -58 65 -119 90 -247 101 -119 11 -561 11 -693 0z m857 -158 c37 -33 43
-84 15 -126 -53 -82 -180 -39 -180 60 0 28 7 43 32 65 43 39 90 39 133 1z"/>
<path d="M1150 1527 c-127 -35 -202 -134 -202 -264 -1 -152 114 -266 267 -267
86 0 145 25 204 89 41 45 71 120 71 180 0 171 -177 307 -340 262z"/>
<path d="M1968 133 c-6 -7 -9 -14 -7 -14 2 -1 124 -2 270 -3 232 -1 266 0 264
13 -2 13 -38 15 -259 16 -194 0 -260 -3 -268 -12z"/>
<path d="M1968 83 c-6 -7 -9 -14 -7 -14 2 -1 124 -2 270 -3 232 -1 266 0 264
13 -2 13 -38 15 -259 16 -194 0 -260 -3 -268 -12z"/>
<path d="M1968 33 c-6 -7 -9 -14 -7 -14 2 -1 124 -2 270 -3 232 -1 266 0 264
13 -2 13 -38 15 -259 16 -194 0 -260 -3 -268 -12z"/>
</g>
</svg>
