<?xml version="1.0" standalone="no"?>
<!DOCTYPE svg PUBLIC "-//W3C//DTD SVG 20010904//EN"
 "http://www.w3.org/TR/2001/REC-SVG-20010904/DTD/svg10.dtd">
<svg version="1.0" xmlns="http://www.w3.org/2000/svg"
 width="250.000000pt" height="250.000000pt" viewBox="0 0 250.000000 250.000000"
 preserveAspectRatio="xMidYMid meet">
<metadata>
Created by potrace 1.15, written by Peter Selinger 2001-2017
</metadata>
<g transform="translate(0.000000,250.000000) scale(0.100000,-0.100000)"
fill="#000000" stroke="none">
<path d="M2128 2247 c-4 -22 -1 -27 13 -27 13 0 19 -7 19 -22 -1 -21 -2 -22
-14 -5 -13 17 -14 16 -19 -3 -4 -15 0 -20 14 -20 13 0 19 -7 19 -22 -1 -21 -2
-22 -14 -5 -13 17 -14 16 -19 -3 -4 -15 0 -20 14 -20 13 0 19 -7 19 -22 -1
-21 -2 -22 -14 -5 -13 17 -14 16 -19 -3 -4 -15 0 -20 16 -21 19 0 19 -2 -5
-10 -23 -9 -33 -5 -70 21 -24 18 -42 36 -41 41 2 4 -5 5 -14 2 -12 -5 -14 -3
-8 7 5 8 4 11 -2 7 -6 -4 -43 6 -83 22 -66 27 -80 29 -196 28 -69 0 -124 -5
-124 -10 0 -5 -7 -6 -16 -3 -8 3 -13 2 -9 -3 3 -5 -9 -13 -27 -17 -42 -9 -98
-35 -98 -46 0 -4 -6 -8 -14 -8 -18 0 -136 -117 -136 -135 0 -19 -14 -21 -145
-21 -76 1 -119 5 -118 12 1 5 -7 10 -17 10 -11 0 -16 -5 -12 -15 3 -9 0 -12
-9 -9 -8 3 -13 10 -12 15 1 5 -7 9 -17 9 -11 0 -16 -5 -12 -15 3 -9 0 -12 -9
-9 -8 3 -13 10 -12 15 1 5 -7 9 -17 9 -11 0 -16 -5 -12 -15 3 -9 0 -12 -9 -9
-8 3 -13 10 -12 15 1 5 -7 9 -17 9 -11 0 -16 -5 -12 -15 3 -9 0 -12 -9 -9 -8
3 -13 10 -12 15 1 5 -7 9 -17 9 -11 0 -16 -5 -12 -15 3 -9 0 -12 -9 -9 -8 3
-13 10 -12 15 1 5 -7 9 -17 9 -11 0 -16 -5 -12 -15 3 -9 0 -12 -9 -9 -8 3 -13
10 -12 15 1 5 -7 9 -17 9 -11 0 -16 -5 -12 -15 3 -9 0 -12 -9 -9 -8 3 -13 10
-12 15 1 5 -7 9 -17 9 -11 0 -16 -5 -12 -15 3 -9 0 -12 -9 -9 -8 3 -13 10 -12
15 1 5 -7 9 -17 9 -11 0 -16 -5 -12 -15 3 -9 0 -12 -9 -9 -8 3 -13 10 -12 15
1 5 -7 9 -17 9 -11 0 -16 -5 -12 -15 3 -9 0 -12 -9 -9 -8 3 -13 11 -11 18 3
11 0 11 -12 0 -17 -13 -20 -21 -8 -18 4 0 16 -3 26 -7 13 -6 21 -5 24 3 2 8 9
8 24 -1 16 -9 22 -9 25 0 3 10 9 10 25 0 16 -9 22 -9 25 0 3 10 9 10 25 0 16
-9 22 -9 25 0 3 10 9 10 25 0 16 -9 22 -9 25 0 3 10 9 10 25 0 16 -9 22 -9 25
0 3 10 9 10 25 0 16 -9 22 -9 25 0 3 10 9 10 25 0 16 -9 22 -9 25 0 3 10 9 10
25 0 16 -9 22 -9 25 0 3 10 9 10 25 0 15 -9 22 -9 25 -1 3 9 12 8 33 -3 33
-16 40 -26 13 -17 -15 5 -15 4 -3 -4 16 -12 33 -6 25 9 -4 5 3 9 14 9 11 0 23
-4 26 -10 4 -6 -1 -7 -12 -4 -15 5 -15 4 -3 -4 16 -12 33 -6 25 9 -4 5 3 9 14
9 11 0 23 -4 26 -10 4 -6 -1 -7 -12 -4 -15 5 -15 4 -3 -4 16 -12 33 -6 25 9
-4 5 3 9 14 9 11 0 23 -4 26 -10 4 -6 -1 -7 -12 -4 -15 5 -15 4 -3 -4 16 -12
33 -6 25 9 -4 5 4 9 17 9 16 0 19 -3 10 -9 -8 -4 -13 -12 -13 -17 1 -5 -47 -9
-106 -9 -68 0 -107 4 -106 10 1 6 -7 11 -17 11 -11 0 -16 -5 -12 -15 3 -9 0
-12 -9 -9 -8 3 -13 10 -12 15 1 5 -7 9 -17 9 -11 0 -16 -5 -12 -15 3 -9 0 -12
-9 -9 -8 3 -13 10 -12 15 1 5 -7 9 -17 9 -11 0 -16 -5 -12 -15 3 -9 0 -12 -9
-9 -8 3 -13 10 -12 15 1 5 -7 9 -17 9 -11 0 -16 -5 -12 -15 3 -9 0 -12 -9 -9
-8 3 -13 10 -12 15 1 5 -7 9 -17 9 -11 0 -16 -5 -12 -15 3 -9 0 -12 -9 -9 -8
3 -13 10 -12 15 1 5 -7 9 -17 9 -11 0 -16 -5 -12 -15 3 -9 0 -12 -9 -9 -8 3
-13 10 -12 15 1 5 -7 9 -17 9 -11 0 -16 -5 -12 -15 3 -9 0 -12 -9 -9 -8 3 -13
10 -12 15 1 5 -7 9 -17 9 -11 0 -16 -5 -12 -15 3 -9 0 -12 -9 -9 -8 3 -13 10
-12 15 1 5 -7 9 -17 9 -11 0 -16 -5 -12 -15 3 -9 0 -12 -9 -9 -8 3 -13 10 -12
15 1 5 -7 9 -17 9 -10 0 -16 -4 -14 -8 9 -15 -6 -8 -33 15 -15 12 -63 57 -106
100 -64 65 -81 76 -93 67 -11 -10 -18 -9 -31 1 -9 8 -14 9 -10 3 4 -7 -3 -14
-18 -18 -14 -4 -23 -11 -20 -16 3 -6 1 -10 -4 -10 -6 0 -11 -9 -11 -19 0 -11
-4 -22 -9 -26 -5 -3 -13 -19 -16 -36 -5 -23 -9 -28 -16 -18 -6 9 -9 10 -9 2 0
-6 5 -15 11 -19 7 -4 8 -18 4 -38 -10 -46 -12 -156 -3 -162 4 -3 8 -15 8 -27
0 -18 -2 -19 -10 -7 -15 23 -12 6 5 -26 15 -29 11 -49 -5 -24 -7 11 -10 11
-10 2 0 -7 7 -15 15 -19 22 -8 46 -58 38 -79 -4 -12 -3 -15 6 -10 6 4 11 4 10
-1 -4 -23 2 -43 14 -43 7 0 32 -9 55 -20 23 -11 63 -23 89 -27 l48 -6 -61 60
c-94 92 -143 209 -144 338 0 88 39 225 65 225 7 0 25 -17 40 -37 61 -84 213
-204 350 -279 84 -46 207 -99 251 -109 10 -2 55 -13 99 -25 44 -11 102 -21
129 -21 28 -1 59 -4 70 -9 20 -7 21 -4 21 99 1 84 5 118 23 165 54 146 184
266 320 295 71 15 186 14 248 -3 60 -16 172 -78 196 -109 16 -21 17 -21 71 -4
29 9 59 17 66 17 6 0 48 18 93 39 45 22 85 38 89 35 14 -9 -57 -110 -128 -181
-45 -47 -65 -73 -55 -73 24 0 150 37 195 56 20 10 40 14 43 11 9 -9 -112 -142
-174 -191 l-53 -42 -4 -110 c-20 -555 -395 -1061 -905 -1222 -138 -44 -263
-62 -420 -62 -230 0 -409 42 -623 146 l-112 54 110 0 c61 0 138 7 172 15 34 8
77 17 95 20 57 10 191 71 283 129 l49 31 -59 11 c-121 22 -205 64 -276 140
-49 52 -120 172 -106 177 7 2 32 0 57 -5 41 -8 123 -2 144 9 4 3 -18 14 -50
25 -73 25 -153 78 -200 132 -53 60 -101 166 -115 252 -10 61 -15 74 -30 74
-11 0 -19 -7 -19 -17 0 -13 -2 -15 -8 -5 -9 14 -7 -84 4 -162 3 -27 14 -62 24
-78 10 -16 16 -39 14 -51 -2 -12 -1 -16 2 -9 4 9 11 5 20 -14 12 -22 12 -30 2
-43 -12 -14 -11 -15 5 -2 22 17 38 4 40 -32 2 -19 5 -23 14 -15 9 7 18 1 32
-23 11 -18 17 -37 13 -43 -10 -17 -8 -90 3 -98 6 -5 5 -16 -4 -30 -13 -20 -13
-22 1 -10 12 10 18 10 27 -2 7 -8 13 -24 14 -35 1 -11 3 -18 6 -16 2 3 17 -13
34 -35 25 -35 27 -43 16 -57 -13 -15 -12 -15 7 -3 19 12 24 11 39 -3 9 -10 26
-22 37 -28 11 -6 17 -13 14 -16 -3 -3 -12 -1 -19 6 -11 9 -17 7 -28 -6 -13
-17 -13 -17 5 -3 18 14 19 13 13 -2 -4 -12 -1 -16 12 -13 11 2 17 -4 18 -16 2
-21 -8 -24 -23 -9 -8 8 -15 5 -25 -7 -13 -17 -13 -17 5 -3 18 14 19 13 13 -2
-4 -12 -1 -16 12 -13 11 2 17 -4 18 -16 2 -21 -8 -24 -23 -9 -8 8 -15 5 -25
-7 -13 -16 -12 -17 3 -4 11 8 18 9 18 3 0 -20 -43 -35 -103 -37 -32 -2 -61 -6
-64 -9 -12 -12 -44 -6 -37 7 6 9 4 9 -7 0 -17 -17 -53 -17 -43 0 6 9 4 9 -7 0
-18 -18 -29 -16 -30 5 0 14 -2 14 -7 2 -10 -22 -42 -24 -43 -3 0 17 -1 17 -8
0 -4 -10 -11 -19 -16 -20 -6 -1 -9 -6 -7 -10 1 -5 -2 -6 -7 -3 -5 3 -14 -1
-21 -10 -8 -9 -16 -11 -19 -5 -4 6 -12 7 -21 0 -13 -8 -12 -11 3 -23 17 -13
17 -15 1 -24 -20 -11 -9 -36 12 -28 9 3 16 -4 20 -19 4 -16 11 -22 22 -18 10
5 13 3 8 -6 -5 -8 -3 -12 5 -10 8 1 21 1 29 0 12 -1 12 -3 2 -10 -9 -5 0 -10
29 -15 34 -5 40 -9 29 -17 -12 -9 -11 -10 6 -6 12 2 27 1 33 -3 7 -4 -2 -7
-19 -8 -36 -1 -55 -12 -22 -12 26 0 29 -17 4 -22 -9 -3 15 -5 53 -5 49 -1 63
2 48 8 -13 4 -23 11 -23 13 0 6 31 -4 45 -14 6 -5 19 -10 30 -12 11 -3 -22 -5
-73 -5 -51 0 -95 -3 -99 -7 -3 -3 3 -6 15 -6 26 0 29 -17 4 -22 -9 -3 37 -5
103 -5 91 0 114 2 95 10 -21 9 -22 11 -7 14 10 3 24 -2 30 -10 7 -9 21 -17 32
-19 11 -3 -44 -5 -123 -5 -78 0 -145 -3 -149 -7 -3 -3 3 -6 15 -6 26 0 29 -17
4 -22 -9 -3 45 -5 121 -5 76 0 140 -3 143 -6 3 -2 -58 -5 -136 -4 -77 0 -143
-3 -147 -7 -3 -3 3 -6 15 -6 26 0 29 -17 4 -22 -9 -3 45 -5 121 -5 76 0 140
-3 143 -6 3 -2 -58 -5 -136 -4 -77 0 -143 -3 -147 -7 -3 -3 3 -6 15 -6 26 0
29 -17 4 -22 -9 -3 45 -5 121 -5 76 0 140 -3 143 -6 3 -2 -58 -5 -136 -4 -77
0 -143 -3 -147 -7 -3 -3 3 -6 15 -6 26 0 29 -17 5 -22 -10 -3 44 -5 120 -5 76
0 140 -3 143 -6 3 -2 -58 -5 -136 -4 -77 0 -143 -3 -147 -7 -7 -7 -9 -7 163
-9 l131 -2 1 113 c0 107 -2 114 -22 122 -19 8 -18 9 7 7 17 -1 27 -7 27 -17 0
-12 2 -13 9 -1 6 9 15 11 27 6 11 -5 23 -9 28 -9 5 -1 12 -10 17 -21 6 -17 8
-17 8 -2 1 23 38 23 44 -1 4 -16 5 -16 6 1 0 9 5 17 10 17 4 0 6 -12 4 -27
l-4 -28 15 25 c10 16 15 19 16 10 0 -13 1 -13 10 0 8 12 10 10 10 -10 0 -19 3
-21 9 -11 13 21 41 22 41 3 0 -14 2 -15 9 -3 13 21 41 22 41 3 0 -14 2 -15 9
-3 13 21 41 22 41 3 0 -14 2 -15 9 -3 13 21 41 22 41 3 0 -14 2 -15 9 -3 13
21 41 22 41 3 1 -12 5 -10 15 8 9 15 14 19 15 10 0 -13 1 -13 10 0 8 12 10 10
10 -10 l1 -25 17 28 c9 15 25 27 37 26 15 0 16 -2 5 -7 -15 -7 -24 -42 -11
-42 4 0 13 11 21 24 12 24 50 43 50 25 0 -5 -6 -9 -13 -9 -7 0 -13 -9 -13 -20
0 -30 12 -24 30 15 9 19 19 35 22 35 3 0 2 -4 -1 -10 -9 -15 4 -12 21 5 20 19
38 19 30 0 -3 -8 -1 -15 3 -15 5 0 11 7 15 15 3 8 13 15 22 15 10 0 14 -5 10
-15 -9 -25 10 -17 24 10 7 14 19 25 27 25 7 0 13 5 13 10 0 6 9 10 21 10 11 0
17 -4 14 -10 -3 -5 -2 -10 3 -10 6 0 12 7 16 15 3 8 13 15 22 15 10 0 14 -5
10 -15 -11 -31 12 -14 28 20 9 19 19 35 22 35 3 0 2 -4 -1 -10 -3 -5 -2 -10 3
-10 6 0 12 7 16 15 3 8 13 15 22 15 10 0 14 -5 10 -15 -10 -26 11 -16 25 13 8
15 21 27 29 27 8 0 14 7 12 15 -2 8 0 12 4 7 4 -4 23 7 42 25 18 18 33 29 32
23 -6 -29 0 -38 15 -25 10 8 12 16 6 20 -6 3 -3 13 9 23 11 9 20 12 20 6 0 -8
5 -8 15 1 8 7 13 16 10 20 -3 4 2 13 10 20 8 7 15 9 15 5 0 -4 7 -2 15 5 8 7
12 17 8 23 -3 5 -2 7 4 4 13 -8 56 37 46 48 -5 4 -3 5 3 2 14 -8 57 36 47 47
-5 4 -1 6 7 4 8 -2 14 3 12 10 -1 8 2 11 7 8 8 -6 24 8 27 24 4 23 18 40 24
30 5 -8 11 -6 20 5 10 12 10 15 -1 15 -10 1 -8 5 5 15 10 7 15 18 12 23 -3 5
6 19 19 32 13 13 23 26 21 29 -3 3 2 15 10 26 8 11 14 14 14 6 0 -11 3 -11 17
0 11 10 14 10 9 2 -4 -8 -2 -13 4 -13 6 0 8 -5 5 -10 -4 -6 -13 -9 -20 -8 -8
2 -14 0 -14 -4 -3 -27 0 -30 16 -17 11 10 14 10 9 1 -4 -7 -2 -12 5 -12 7 0 9
-3 5 -7 -4 -5 -24 -8 -44 -8 -36 0 -42 -4 -42 -26 0 -8 6 -7 17 2 11 10 14 10
9 1 -4 -7 -2 -12 4 -12 7 0 10 7 6 17 -6 17 -5 17 7 1 11 -14 16 -15 27 -5 10
9 11 9 6 0 -4 -8 -2 -13 5 -13 7 0 9 -3 5 -8 -4 -4 -24 -7 -44 -7 -36 0 -42
-4 -42 -26 0 -8 6 -7 17 2 11 10 14 10 9 2 -4 -8 -2 -13 4 -13 7 0 10 7 6 17
-6 17 -5 17 7 1 11 -14 16 -15 27 -5 10 9 11 9 6 0 -4 -8 -2 -13 5 -13 7 0 9
-3 5 -8 -4 -4 -37 -7 -72 -7 -35 0 -64 -4 -64 -8 0 -4 0 -12 0 -18 0 -8 6 -7
17 2 11 10 14 10 9 2 -4 -8 -2 -13 4 -13 7 0 10 7 6 18 -6 16 -5 16 7 0 11
-14 16 -15 27 -5 10 9 11 9 6 0 -4 -7 -2 -13 4 -13 7 0 10 7 6 17 -6 17 -5 17
7 1 11 -14 16 -15 27 -5 10 9 11 9 6 0 -4 -8 -2 -13 5 -13 7 0 9 -3 5 -8 -4
-4 -49 -7 -99 -7 -51 0 -91 -4 -89 -8 1 -4 2 -12 2 -18 0 -8 6 -7 17 2 11 10
14 10 9 2 -4 -8 -2 -13 4 -13 7 0 10 7 6 17 -6 17 -5 17 7 1 11 -14 16 -15 27
-5 10 9 11 9 6 0 -4 -7 -2 -13 4 -13 7 0 10 7 6 18 -6 16 -5 16 7 0 11 -14 16
-15 27 -5 10 9 11 9 6 0 -4 -7 -2 -13 4 -13 7 0 10 7 6 18 -6 16 -5 16 7 0 11
-14 16 -15 27 -5 10 9 11 9 6 0 -4 -8 -2 -13 5 -13 7 0 9 -3 5 -8 -4 -4 -59
-7 -122 -7 -63 0 -114 -4 -114 -8 0 -4 0 -12 0 -18 0 -8 6 -7 17 2 11 10 14
10 9 1 -4 -7 -2 -12 4 -12 7 0 10 7 6 18 -6 16 -5 16 7 0 11 -14 16 -15 27 -5
10 9 11 9 6 0 -4 -7 -2 -13 4 -13 7 0 10 7 6 18 -6 16 -5 16 7 0 11 -14 16
-15 27 -5 10 9 11 9 6 0 -4 -7 -2 -13 4 -13 7 0 10 7 6 17 -6 17 -5 17 7 1 11
-14 16 -15 27 -5 10 9 11 9 6 -1 -4 -6 -2 -12 4 -12 7 0 10 7 6 18 -6 16 -5
16 7 0 11 -14 16 -15 27 -5 10 9 11 9 6 0 -4 -8 -2 -13 5 -13 7 0 9 -3 5 -7
-4 -5 -69 -8 -144 -8 -76 0 -138 -4 -139 -8 -8 -22 -2 -28 14 -16 11 10 14 10
9 2 -4 -8 -2 -13 4 -13 7 0 10 7 6 18 -6 16 -5 16 7 0 11 -14 16 -15 27 -5 10
9 11 9 6 0 -4 -7 -2 -13 4 -13 7 0 10 7 6 18 -6 16 -5 16 7 0 11 -14 16 -15
27 -5 10 9 11 9 6 0 -4 -7 -2 -13 4 -13 7 0 10 7 6 17 -6 17 -5 17 7 1 11 -14
16 -15 27 -5 10 9 11 9 6 0 -4 -7 -2 -13 4 -13 7 0 10 7 6 17 -6 17 -5 17 7 1
11 -14 16 -15 27 -5 10 9 11 9 6 0 -4 -7 -2 -13 4 -13 7 0 10 7 6 18 -6 16 -5
16 7 0 11 -14 16 -15 27 -5 10 9 11 9 6 0 -4 -8 -2 -13 5 -13 7 0 9 -3 5 -7
-4 -5 -82 -8 -172 -8 -90 0 -164 -4 -164 -8 0 -4 0 -12 0 -18 0 -8 6 -7 17 2
11 10 14 10 9 1 -4 -7 -2 -12 4 -12 7 0 10 7 6 18 -6 16 -5 16 7 0 11 -14 16
-15 27 -5 10 9 11 9 6 0 -4 -7 -2 -13 4 -13 7 0 10 7 6 18 -6 16 -5 16 7 0 11
-14 16 -15 27 -5 10 9 11 9 6 0 -4 -7 -2 -13 4 -13 7 0 10 7 6 18 -6 16 -5 16
7 0 11 -14 16 -15 27 -5 10 9 11 9 6 0 -4 -7 -2 -13 4 -13 7 0 10 7 6 17 -6
17 -5 17 7 1 11 -14 16 -15 27 -5 10 9 11 9 6 0 -4 -7 -2 -13 4 -13 7 0 10 7
6 18 -6 16 -5 16 7 0 11 -14 16 -15 27 -5 10 9 11 9 6 0 -4 -7 -2 -13 4 -13 7
0 10 7 6 18 -6 16 -5 16 7 0 11 -14 16 -15 27 -5 10 9 11 9 6 -1 -4 -7 -2 -12
5 -12 7 0 9 -3 5 -7 -4 -5 -93 -8 -197 -8 -104 0 -189 -4 -189 -8 0 -4 0 -12
0 -18 0 -8 6 -7 17 2 11 10 14 10 9 1 -4 -7 -2 -12 4 -12 7 0 10 7 6 18 -6 16
-5 16 7 0 11 -14 16 -15 27 -5 10 9 11 9 6 0 -4 -7 -2 -13 4 -13 7 0 10 7 6
18 -6 16 -5 16 7 0 11 -14 16 -15 27 -5 10 9 11 9 6 0 -4 -7 -2 -13 4 -13 7 0
10 7 6 18 -6 16 -5 16 7 0 11 -14 16 -15 27 -5 10 9 11 9 6 -1 -4 -6 -2 -12 4
-12 7 0 10 7 6 18 -6 16 -5 16 7 0 11 -14 16 -15 27 -5 10 9 11 9 6 0 -4 -7
-2 -13 4 -13 7 0 10 7 6 18 -6 16 -5 16 7 0 11 -14 16 -15 27 -5 10 9 11 9 6
0 -4 -7 -2 -13 4 -13 7 0 10 7 6 18 -6 16 -5 16 7 0 11 -14 16 -15 27 -5 10 9
11 9 6 -1 -4 -6 -2 -12 4 -12 7 0 10 7 6 18 -6 16 -5 16 7 0 11 -14 16 -15 27
-5 10 9 11 9 6 0 -4 -8 -2 -13 5 -13 7 0 9 -3 5 -7 -4 -5 -114 -8 -244 -8
-147 0 -237 -4 -237 -10 0 -6 6 -9 13 -9 6 1 12 -2 12 -7 0 -5 -6 -9 -13 -9
-7 0 -13 -9 -13 -20 0 -27 10 -25 25 4 8 14 10 30 5 38 -7 11 -5 11 9 0 9 -8
21 -11 27 -7 5 3 10 1 10 -4 0 -6 -6 -11 -13 -11 -7 0 -13 -9 -13 -20 0 -27
10 -25 25 4 8 14 10 30 5 38 -7 11 -5 11 9 0 9 -8 21 -11 27 -7 5 3 10 1 10
-4 0 -6 -6 -11 -13 -11 -7 0 -13 -9 -13 -20 0 -27 10 -25 25 4 8 14 10 30 5
38 -7 11 -5 11 9 0 9 -8 21 -11 27 -7 5 3 10 1 10 -4 0 -6 -6 -11 -13 -11 -7
0 -13 -9 -13 -20 0 -27 10 -25 25 4 8 14 10 30 5 38 -7 11 -5 11 9 0 9 -8 21
-11 27 -7 5 3 10 1 10 -4 0 -6 -6 -11 -13 -11 -7 0 -13 -9 -13 -20 0 -27 10
-25 25 4 8 14 10 30 5 38 -7 11 -5 11 9 0 9 -8 21 -11 27 -7 5 3 10 1 10 -4 0
-6 -6 -11 -13 -11 -7 0 -13 -9 -13 -20 0 -27 10 -25 25 4 8 14 10 30 5 38 -7
11 -5 11 9 0 9 -8 21 -11 27 -7 5 3 10 1 10 -4 0 -6 -6 -11 -13 -11 -7 0 -13
-9 -13 -20 0 -27 10 -25 25 4 8 14 10 30 5 38 -7 11 -5 11 9 0 9 -8 21 -11 27
-7 5 3 10 1 10 -4 0 -6 -6 -11 -13 -11 -7 0 -13 -9 -13 -20 0 -27 10 -25 25 4
8 14 10 30 5 38 -7 11 -5 11 9 0 9 -8 21 -11 27 -7 5 3 10 1 10 -4 0 -6 -6
-11 -13 -11 -7 0 -13 -9 -13 -20 0 -27 10 -25 25 4 8 14 10 30 5 38 -7 11 -5
11 9 0 9 -8 21 -11 27 -7 5 3 10 1 10 -4 0 -6 -6 -11 -13 -11 -7 0 -13 -9 -13
-20 0 -27 10 -25 26 6 11 20 14 88 15 309 0 250 -2 282 -15 272 -10 -8 -10 -5
2 8 16 19 18 24 18 45 0 5 6 9 12 7 8 -1 13 11 14 33 1 19 9 48 17 63 13 25
16 26 20 10 4 -17 4 -17 12 1 5 11 3 21 -5 26 -9 6 -9 9 -1 15 7 4 11 14 10
23 -3 33 1 53 10 48 4 -3 7 5 6 18 -2 14 4 35 13 48 10 12 18 43 18 68 1 25 2
64 3 88 l1 42 122 0 c67 0 118 3 115 6 -4 4 -58 7 -122 7 -88 0 -113 3 -105
12 5 6 7 15 3 18 -3 4 47 7 112 7 65 0 115 3 112 6 -4 4 -55 7 -113 8 -94 1
-107 3 -110 19 -2 15 9 17 114 17 63 0 112 3 109 6 -4 4 -55 7 -113 8 -94 1
-107 3 -110 19 -2 15 9 17 114 17 63 0 112 3 109 7 -4 3 -55 6 -115 6 -59 0
-100 2 -92 5 8 3 19 11 23 18 6 10 33 14 99 14 50 0 88 3 85 7 -4 3 -42 6 -85
6 -60 0 -72 2 -54 10 12 5 22 14 22 19 0 4 28 8 62 8 34 0 58 3 54 7 -3 4 -28
6 -55 6 -48 -1 -49 -1 -33 18 11 13 30 19 57 19 25 0 35 3 27 9 -7 4 -25 7
-40 5 -15 -2 -19 -1 -9 2 9 3 17 12 17 20 0 8 10 14 23 14 20 1 20 2 4 11 -9
6 -15 15 -11 21 4 7 9 6 14 -1 4 -7 7 8 6 33 0 29 -5 47 -14 51 -7 3 -11 9 -8
14 3 5 -10 8 -29 6 -20 -1 -38 2 -41 7 -3 4 18 8 45 8 28 0 51 2 51 4 0 2 -3
12 -7 22 -6 16 -7 16 -14 -2 -7 -17 -8 -17 -8 4 -1 14 5 22 15 22 11 0 14 5
10 16 -3 9 -6 19 -7 22 0 4 -4 -2 -9 -13 -8 -19 -9 -19 -9 3 -1 14 5 22 15 22
11 0 14 5 10 16 -3 9 -6 19 -7 22 0 4 -4 -2 -9 -13 -8 -19 -9 -19 -9 3 -1 14
5 22 15 22 11 0 14 5 10 16 -3 9 -6 19 -7 22 0 4 -4 -2 -9 -13 -8 -19 -9 -19
-9 3 -1 14 5 22 15 22 11 0 14 5 10 16 -3 9 -6 19 -7 22 0 4 -4 -2 -9 -13 -8
-19 -9 -19 -9 3 -1 14 5 22 15 22 11 0 14 5 10 16 -3 9 -6 21 -7 27 -1 7 -5 1
-9 -13 -7 -21 -8 -22 -10 -5 l-1 20 -9 -20 c-8 -19 -8 -19 -18 5 l-11 25 -1
-25 c-1 -23 -2 -23 -9 -5 l-8 20 -5 -20 c-5 -19 -6 -18 -16 5 l-11 25 -1 -25
c-1 -23 -2 -23 -9 -5 l-8 20 -5 -20 c-5 -19 -6 -18 -16 5 l-11 25 -1 -25 c-1
-23 -2 -23 -9 -5 l-8 20 -5 -20 c-5 -19 -6 -18 -16 5 l-11 25 -1 -25 c-1 -23
-2 -23 -9 -5 l-8 20 -5 -20 c-5 -19 -6 -18 -16 5 l-11 25 -1 -25 c-1 -23 -2
-23 -9 -5 l-8 20 -5 -20 c-5 -19 -6 -18 -16 5 l-11 25 -1 -25 c-1 -23 -2 -23
-9 -5 l-8 20 -5 -20 c-5 -19 -6 -18 -15 4 l-10 25 -5 -27z m-1511 -360 c3 10
9 10 25 0 16 -9 22 -9 25 0 3 10 9 10 25 0 16 -9 22 -9 25 0 3 10 9 10 25 0
16 -9 22 -9 25 0 3 10 9 10 25 0 16 -9 22 -9 25 0 3 10 9 10 25 0 16 -9 22 -9
25 0 3 10 9 10 25 0 16 -9 22 -9 25 0 3 10 9 10 25 0 16 -9 22 -9 25 0 3 10 9
10 25 0 16 -10 22 -9 25 1 4 10 8 10 19 1 9 -7 52 -12 114 -12 74 0 100 -3
100 -12 0 -19 -15 -21 -120 -21 -59 1 -94 5 -93 11 1 6 -7 11 -17 11 -11 0
-16 -5 -12 -15 3 -9 0 -12 -9 -9 -8 3 -13 10 -12 15 1 5 -7 9 -17 9 -11 0 -16
-5 -12 -15 3 -9 0 -12 -9 -9 -8 3 -13 10 -12 15 1 5 -7 9 -17 9 -11 0 -16 -5
-12 -15 3 -9 0 -12 -9 -9 -8 3 -13 10 -12 15 1 5 -7 9 -17 9 -11 0 -16 -5 -12
-15 3 -9 0 -12 -9 -9 -8 3 -13 10 -12 15 1 5 -7 9 -17 9 -11 0 -16 -5 -12 -15
3 -9 0 -12 -9 -9 -8 3 -13 10 -12 15 1 5 -7 9 -17 9 -11 0 -16 -5 -12 -15 3
-9 0 -12 -9 -9 -8 3 -13 10 -12 15 1 5 -7 9 -17 9 -11 0 -16 -5 -12 -15 3 -9
0 -12 -9 -9 -8 3 -13 10 -12 15 1 5 -7 9 -17 9 -11 0 -16 -5 -12 -15 3 -9 0
-12 -9 -9 -8 3 -13 11 -11 17 2 9 -3 9 -19 0 -12 -6 -19 -7 -15 -1 3 5 -3 12
-14 15 -11 3 -20 10 -20 16 0 8 7 7 21 -1 17 -10 23 -10 26 -1z m100 -50 c3
10 9 10 25 0 16 -9 22 -9 25 0 3 10 9 10 25 0 16 -9 22 -9 25 0 3 10 9 10 25
0 16 -9 22 -9 25 0 3 10 9 10 25 0 16 -9 22 -9 25 0 3 10 9 10 25 0 16 -9 22
-9 25 0 3 10 9 10 25 0 16 -10 22 -9 25 1 4 10 8 10 19 1 9 -8 47 -12 99 -11
84 0 107 -7 82 -25 -16 -13 -183 -11 -180 3 1 5 -7 10 -17 10 -11 0 -16 -5
-12 -15 3 -9 0 -12 -9 -9 -8 3 -13 10 -12 15 1 5 -7 9 -17 9 -11 0 -16 -5 -12
-15 3 -9 0 -12 -9 -9 -8 3 -13 10 -12 15 1 5 -7 9 -17 9 -11 0 -16 -5 -12 -15
3 -9 0 -12 -9 -9 -8 3 -13 10 -12 15 1 5 -7 9 -17 9 -11 0 -16 -5 -12 -15 3
-9 0 -12 -9 -9 -8 3 -13 10 -12 15 1 5 -7 9 -17 9 -11 0 -16 -5 -12 -15 3 -9
0 -12 -9 -9 -8 3 -13 10 -12 15 1 5 -7 9 -17 9 -11 0 -16 -5 -12 -15 3 -9 0
-12 -9 -9 -8 3 -13 10 -12 15 1 5 -7 9 -17 9 -10 0 -16 -6 -13 -13 4 -9 0 -11
-11 -7 -9 3 -13 11 -9 17 3 6 1 7 -5 3 -19 -11 -34 3 -20 18 10 10 17 11 32 2
14 -8 20 -8 23 1z m50 -50 c3 10 9 10 25 0 16 -9 22 -9 25 0 3 10 9 10 25 0
16 -9 22 -9 25 0 3 10 9 10 25 0 16 -9 22 -9 25 0 3 10 9 10 25 0 16 -9 22 -9
25 0 3 10 9 10 25 0 16 -10 22 -9 25 1 4 10 8 10 19 1 9 -7 49 -12 102 -12 48
0 82 -1 75 -4 -7 -2 -10 -10 -7 -17 4 -9 -16 -12 -83 -11 -53 0 -87 5 -86 11
1 5 -7 10 -17 10 -11 0 -16 -5 -12 -15 3 -9 0 -12 -9 -9 -8 3 -13 10 -12 15 1
5 -7 9 -17 9 -11 0 -16 -5 -12 -15 3 -9 0 -12 -9 -9 -8 3 -13 10 -12 15 1 5
-7 9 -17 9 -11 0 -16 -5 -12 -15 3 -9 0 -12 -9 -9 -8 3 -13 10 -12 15 1 5 -7
9 -17 9 -11 0 -16 -5 -12 -15 3 -9 0 -12 -9 -9 -8 3 -13 10 -12 15 1 5 -7 9
-17 9 -10 0 -16 -6 -13 -13 4 -9 0 -11 -11 -7 -9 3 -13 11 -9 17 3 5 1 7 -5 3
-12 -7 -62 13 -62 26 0 4 10 3 21 -4 17 -10 23 -10 26 -1z"/>
</g>
</svg>
